<svg width="498" height="211" viewBox="0 0 498 211" fill="none" xmlns="http://www.w3.org/2000/svg">
<ellipse cx="227.401" cy="114.839" rx="104.05" ry="96.1607" fill="#FFC7C7"/>
<g style="mix-blend-mode:hard-light">
<ellipse cx="255.291" cy="96.1607" rx="104.05" ry="96.1607" transform="rotate(-180 255.291 96.1607)" fill="#FFC7C7"/>
</g>
<g filter="url(#filter0_b)">
<path d="M52.2121 147.056C41.3321 147.056 33.0121 143.824 27.2521 137.36C21.4921 130.832 18.6121 121.936 18.6121 110.672C18.6121 103.248 20.1161 96.784 23.1241 91.28C26.1961 85.712 30.3881 81.424 35.7001 78.416C41.0121 75.408 47.0281 73.904 53.7481 73.904C56.5641 73.904 59.2841 74.096 61.9081 74.48C64.5321 74.8 67.6361 75.248 71.2201 75.824C73.9081 76.272 75.3801 76.496 75.6361 76.496L74.5801 96.272H65.7481L62.7721 82.544C62.0681 81.84 60.8521 81.264 59.1241 80.816C57.3961 80.368 55.1881 80.144 52.5001 80.144C47.0601 80.144 42.6761 82.672 39.3481 87.728C36.0841 92.72 34.4521 99.984 34.4521 109.52C34.4521 118.736 36.0201 126.256 39.1561 132.08C42.2921 137.904 46.8681 140.816 52.8841 140.816C55.7641 140.816 57.9721 140.56 59.5081 140.048C61.1081 139.472 62.4521 138.672 63.5401 137.648L67.7641 127.76L75.8281 128.528L73.9081 143.408C72.5641 143.536 71.2201 143.792 69.8761 144.176C68.5961 144.496 67.7961 144.688 67.4761 144.752C64.9161 145.456 62.5161 146 60.2761 146.384C58.1001 146.832 55.4121 147.056 52.2121 147.056ZM83.3356 119.408C83.3356 113.392 84.5196 108.272 86.8876 104.048C89.3196 99.824 92.5516 96.656 96.5836 94.544C100.616 92.368 105 91.28 109.736 91.28C117.8 91.28 124.008 93.776 128.36 98.768C132.776 103.696 134.984 110.416 134.984 118.928C134.984 125.008 133.768 130.192 131.336 134.48C128.968 138.704 125.768 141.872 121.736 143.984C117.768 146.032 113.384 147.056 108.584 147.056C100.584 147.056 94.3756 144.592 89.9596 139.664C85.5436 134.672 83.3356 127.92 83.3356 119.408ZM109.352 140.816C116.584 140.816 120.2 133.84 120.2 119.888C120.2 112.592 119.336 107.056 117.608 103.28C115.88 99.44 113.064 97.52 109.16 97.52C101.736 97.52 98.0236 104.496 98.0236 118.448C98.0236 125.744 98.9196 131.312 100.712 135.152C102.568 138.928 105.448 140.816 109.352 140.816ZM138.815 92.624H164.159V98.192L157.823 99.44L166.559 125.552L169.631 135.728L172.223 125.84L180.767 99.44L174.719 98.192V92.624H195.839V98.192L190.847 99.44L172.991 146.768H161.855L142.751 99.44L138.815 98.192V92.624ZM209.978 83.888C207.674 83.888 205.85 83.216 204.506 81.872C203.162 80.528 202.49 78.8 202.49 76.688C202.49 74.256 203.258 72.24 204.794 70.64C206.33 69.04 208.378 68.24 210.938 68.24C213.498 68.24 215.45 68.944 216.794 70.352C218.138 71.696 218.81 73.392 218.81 75.44C218.81 78 218.042 80.048 216.506 81.584C214.97 83.12 212.826 83.888 210.074 83.888H209.978ZM204.89 101.744L198.074 99.92V93.488L215.642 91.376H215.834L218.522 93.296V139.472L224.954 140.24V146H198.17V140.24L204.89 139.376V101.744ZM238.94 81.872L231.74 80.624V74.672H246.236C247.58 74.672 249.66 74.608 252.476 74.48C256.188 74.224 259.548 74.096 262.556 74.096C269.212 74.096 274.46 74.928 278.3 76.592C282.204 78.192 284.956 80.528 286.556 83.6C288.22 86.608 289.052 90.448 289.052 95.12C289.052 103.184 286.524 109.456 281.468 113.936C276.476 118.416 269.532 120.656 260.636 120.656C257.116 120.656 254.588 120.56 253.052 120.368V139.28L265.916 140.24V146H231.356V140.24L238.94 139.28V81.872ZM252.956 114.224C254.428 114.544 256.924 114.704 260.444 114.704C264.732 114.704 268.156 113.232 270.716 110.288C273.34 107.28 274.652 102.32 274.652 95.408C274.652 90.032 273.468 86.128 271.1 83.696C268.796 81.2 265.244 79.952 260.444 79.952C258.652 79.952 256.796 80.08 254.876 80.336C253.98 80.464 253.34 80.528 252.956 80.528V114.224ZM294.248 131.024C294.248 125.2 297.16 120.816 302.984 117.872C308.872 114.928 316.456 113.424 325.736 113.36V111.152C325.736 108.528 325.448 106.48 324.872 105.008C324.36 103.536 323.368 102.448 321.896 101.744C320.488 100.976 318.408 100.592 315.656 100.592C312.52 100.592 309.704 101.008 307.208 101.84C304.712 102.608 302.12 103.632 299.432 104.912L296.456 98.768C297.416 97.936 299.016 96.944 301.256 95.792C303.56 94.64 306.28 93.648 309.416 92.816C312.552 91.92 315.784 91.472 319.112 91.472C324.04 91.472 327.88 92.112 330.632 93.392C333.448 94.672 335.464 96.72 336.68 99.536C337.896 102.352 338.504 106.128 338.504 110.864V140.24H343.688V145.616C342.408 145.936 340.584 146.256 338.216 146.576C335.848 146.896 333.768 147.056 331.976 147.056C329.8 147.056 328.328 146.736 327.56 146.096C326.856 145.456 326.504 144.144 326.504 142.16V139.568C324.776 141.488 322.536 143.216 319.784 144.752C317.032 146.288 313.928 147.056 310.472 147.056C307.528 147.056 304.808 146.448 302.312 145.232C299.88 143.952 297.928 142.128 296.456 139.76C294.984 137.328 294.248 134.416 294.248 131.024ZM316.616 139.088C317.96 139.088 319.496 138.704 321.224 137.936C322.952 137.104 324.456 136.112 325.736 134.96V119.216C319.976 119.216 315.656 120.208 312.776 122.192C309.96 124.112 308.552 126.608 308.552 129.68C308.552 132.752 309.256 135.088 310.664 136.688C312.136 138.288 314.12 139.088 316.616 139.088ZM361.103 83.888C358.799 83.888 356.975 83.216 355.631 81.872C354.287 80.528 353.615 78.8 353.615 76.688C353.615 74.256 354.383 72.24 355.919 70.64C357.455 69.04 359.503 68.24 362.063 68.24C364.623 68.24 366.575 68.944 367.919 70.352C369.263 71.696 369.935 73.392 369.935 75.44C369.935 78 369.167 80.048 367.631 81.584C366.095 83.12 363.951 83.888 361.199 83.888H361.103ZM356.015 101.744L349.199 99.92V93.488L366.767 91.376H366.959L369.647 93.296V139.472L376.079 140.24V146H349.295V140.24L356.015 139.376V101.744ZM388.337 101.744L382.193 100.016V93.392L398.129 91.376H398.417L400.817 93.296V97.04L400.721 99.344C402.961 97.232 405.873 95.408 409.457 93.872C413.041 92.336 416.657 91.568 420.305 91.568C424.209 91.568 427.249 92.304 429.425 93.776C431.665 95.184 433.265 97.424 434.225 100.496C435.185 103.568 435.665 107.728 435.665 112.976V139.472L441.521 140.24V146H416.753V140.24L421.937 139.472V112.976C421.937 109.648 421.713 107.056 421.265 105.2C420.817 103.28 419.985 101.904 418.769 101.072C417.617 100.176 415.953 99.728 413.777 99.728C410.129 99.728 406.225 101.296 402.065 104.432V139.376L407.825 140.24V146H382.769V140.24L388.337 139.376V101.744ZM464.432 146.864C460.4 146.864 457.424 145.936 455.504 144.08C453.584 142.224 452.624 139.28 452.624 135.248V100.016H446.384V95.024C446.896 94.832 447.824 94.512 449.168 94.064C450.512 93.552 451.536 93.136 452.24 92.816C453.328 91.984 454.256 90.544 455.024 88.496C455.6 87.152 456.656 83.824 458.192 78.512H465.872L466.256 92.624H480.944V100.016H466.352V126.992C466.352 130.576 466.448 133.104 466.64 134.576C466.832 136.048 467.248 137.008 467.888 137.456C468.528 137.84 469.648 138.032 471.248 138.032C472.848 138.032 474.512 137.872 476.24 137.552C477.968 137.168 479.408 136.72 480.56 136.208L482.384 141.584C480.592 142.928 477.968 144.144 474.512 145.232C471.056 146.32 467.696 146.864 464.432 146.864Z" fill="white"/>
</g>
<defs>
<filter id="filter0_b" x="14.6122" y="64.24" width="471.772" height="86.816" filterUnits="userSpaceOnUse" color-interpolation-filters="sRGB">
<feFlood flood-opacity="0" result="BackgroundImageFix"/>
<feGaussianBlur in="BackgroundImage" stdDeviation="2"/>
<feComposite in2="SourceAlpha" operator="in" result="effect1_backgroundBlur"/>
<feBlend mode="normal" in="SourceGraphic" in2="effect1_backgroundBlur" result="shape"/>
</filter>
</defs>
</svg>
